<?xml version="1.0" encoding="UTF-8" standalone="no"?>
<!DOCTYPE svg PUBLIC "-//W3C//DTD SVG 1.1//EN"
"http://www.w3.org/Graphics/SVG/1.1/DTD/svg11.dtd">
<svg viewBox="0 0 935 1540" version="1.1" xmlns="http://www.w3.org/2000/svg" xmlns:xlink="http://www.w3.org/1999/xlink">
<defs>
<clipPath id="c0_1"><path d="M22,1443.6v-330H904.8v330Z"/></clipPath>
<style type="text/css"><![CDATA[
.g0_1{
fill: none;
stroke: #000000;
stroke-width: 1.527;
stroke-linecap: butt;
stroke-linejoin: round;
}
.g1_1{
fill: none;
stroke: #000000;
stroke-width: 0.152;
stroke-linecap: butt;
stroke-linejoin: round;
}
.g2_1{
fill: #FFFFFF;
}
.g3_1{
fill: #C0C0C0;
}
]]></style>
</defs>
<path d="M36.5,25.8H904.8M32.3,65.2H904.8M32.3,100.5H904.8m-870,30.6h870m-872.5,45H904.8" class="g0_1"/>
<path d="M37.5,202.9H910M37.5,231.8H910M37.5,260.6H910M37.5,289.5H910M37.5,318.4H910M37.5,347.3H910M37.5,376.1H910M37.5,405H910M37.5,433.9H910M37.5,462.8H910M37.5,491.6H910M37.5,520.5H910M37.5,549.4H910M37.5,578.3H910M37.5,607.1H910M37.5,636H910M37.5,664.9H910M37.5,693.8H910M37.5,722.6H910M37.5,751.5H910M37.5,780.4H910M37.5,809.3H910M37.5,838.1H910M37.5,867H910M37.5,895.9H910M37.5,924.8H910M37.5,953.6H910M37.5,982.5H910M37.5,1011.4H910M37.5,1040.3H910M37.5,1069.1H910" class="g1_1"/>
<path d="M33.5,1075.2H904.8M33.5,1107.9H904.8M37.5,1496.2H904.8" class="g0_1"/>
<image clip-path="url(#c0_1)" preserveAspectRatio="none" x="22" y="1114" width="883" height="330" xlink:href="img/1.jpg"/>
<path fill-rule="evenodd" d="M36.4,34.6H904.7V63.2H36.4V34.6Z" class="g2_1"/>
<path fill-rule="evenodd" d="M36.4,34.6H904.7V60.1H36.4V34.6Z" class="g2_1"/>
<path fill-rule="evenodd" d="M36.4,73.7H904.7V99.1H36.4V73.7Z" class="g2_1"/>
<path fill-rule="evenodd" d="M36.4,73.7H904.7V93.9H36.4V73.7Z" class="g2_1"/>
<path fill-rule="evenodd" d="M37.5,104.6H904.7v23H37.5v-23Z" class="g2_1"/>
<path fill-rule="evenodd" d="M37.5,104.6H904.7v18.5H37.5V104.6Z" class="g3_1"/>
<path fill-rule="evenodd" d="M834.4,139.4h70.3V175H834.4V139.4Z" class="g2_1"/>
<path fill-rule="evenodd" d="M344.1,137.9h95.5v33.6H344.1V137.9Z" class="g2_1"/>
<path fill-rule="evenodd" d="M644.2,137.9h88.1v36.6H644.2V137.9Z" class="g2_1"/>
<path fill-rule="evenodd" d="M48.4,137.9H185.9v18.3H48.4V137.9Z" class="g2_1"/>
<path fill-rule="evenodd" d="M740.4,137.9h87.9v35.6H740.4V137.9Z" class="g2_1"/>
<path fill-rule="evenodd" d="M445.3,137.9h95.5v36.6H445.3V137.9Z" class="g2_1"/>
<path fill-rule="evenodd" d="M549,137.9h86.3v36.6H549V137.9Z" class="g2_1"/>
<path fill-rule="evenodd" d="M344.1,183h95.5v15.5H344.1V183Z" class="g2_1"/>
<path fill-rule="evenodd" d="M644.2,183h88.1v15.5H644.2V183Z" class="g2_1"/>
<path fill-rule="evenodd" d="M834.4,184.5h70.3v15.6H834.4V184.5Z" class="g2_1"/>
<path fill-rule="evenodd" d="M41.2,183H335.4v16.8H41.2V183Z" class="g2_1"/>
<path fill-rule="evenodd" d="M740.4,183h87.9v15.5H740.4V183Z" class="g2_1"/>
<path fill-rule="evenodd" d="M549,183h86.3v16.8H549V183Z" class="g2_1"/>
<path fill-rule="evenodd" d="M445.3,183h95.5v16.8H445.3V183Z" class="g2_1"/>
<path fill-rule="evenodd" d="M344.1,211.8h95.5v15.6H344.1V211.8Z" class="g2_1"/>
<path fill-rule="evenodd" d="M644.2,211.8h88.1v15.6H644.2V211.8Z" class="g2_1"/>
<path fill-rule="evenodd" d="M834.4,213.4h70.3v15.5H834.4V213.4Z" class="g2_1"/>
<path fill-rule="evenodd" d="M41.2,211.8H335.4v16.8H41.2V211.8Z" class="g2_1"/>
<path fill-rule="evenodd" d="M740.4,211.8h87.9v15.6H740.4V211.8Z" class="g2_1"/>
<path fill-rule="evenodd" d="M549,211.8h86.3v16.8H549V211.8Z" class="g2_1"/>
<path fill-rule="evenodd" d="M445.3,211.8h95.5v16.8H445.3V211.8Z" class="g2_1"/>
<path fill-rule="evenodd" d="M344.1,240.7h95.5v15.6H344.1V240.7Z" class="g2_1"/>
<path fill-rule="evenodd" d="M644.2,240.7h88.1v15.6H644.2V240.7Z" class="g2_1"/>
<path fill-rule="evenodd" d="M834.4,242.2h70.3v15.6H834.4V242.2Z" class="g2_1"/>
<path fill-rule="evenodd" d="M41.2,240.7H335.4v16.8H41.2V240.7Z" class="g2_1"/>
<path fill-rule="evenodd" d="M740.4,240.7h87.9v15.6H740.4V240.7Z" class="g2_1"/>
<path fill-rule="evenodd" d="M549,240.7h86.3v16.8H549V240.7Z" class="g2_1"/>
<path fill-rule="evenodd" d="M445.3,240.7h95.5v16.8H445.3V240.7Z" class="g2_1"/>
<path fill-rule="evenodd" d="M344.1,269.6h95.5v15.6H344.1V269.6Z" class="g2_1"/>
<path fill-rule="evenodd" d="M644.2,269.6h88.1v15.6H644.2V269.6Z" class="g2_1"/>
<path fill-rule="evenodd" d="M834.4,271.1h70.3v15.6H834.4V271.1Z" class="g2_1"/>
<path fill-rule="evenodd" d="M41.2,269.6H335.4v16.8H41.2V269.6Z" class="g2_1"/>
<path fill-rule="evenodd" d="M740.4,269.6h87.9v15.6H740.4V269.6Z" class="g2_1"/>
<path fill-rule="evenodd" d="M549,269.6h86.3v16.8H549V269.6Z" class="g2_1"/>
<path fill-rule="evenodd" d="M445.3,269.6h95.5v16.8H445.3V269.6Z" class="g2_1"/>
<path fill-rule="evenodd" d="M344.1,298.5h95.5V314H344.1V298.5Z" class="g2_1"/>
<path fill-rule="evenodd" d="M644.2,298.5h88.1V314H644.2V298.5Z" class="g2_1"/>
<path fill-rule="evenodd" d="M834.4,300h70.3v15.6H834.4V300Z" class="g2_1"/>
<path fill-rule="evenodd" d="M41.2,298.5H335.4v16.8H41.2V298.5Z" class="g2_1"/>
<path fill-rule="evenodd" d="M740.4,298.5h87.9V314H740.4V298.5Z" class="g2_1"/>
<path fill-rule="evenodd" d="M549,298.5h86.3v16.8H549V298.5Z" class="g2_1"/>
<path fill-rule="evenodd" d="M445.3,298.5h95.5v16.8H445.3V298.5Z" class="g2_1"/>
<path fill-rule="evenodd" d="M344.1,327.3h95.5v15.6H344.1V327.3Z" class="g2_1"/>
<path fill-rule="evenodd" d="M644.2,327.3h88.1v15.6H644.2V327.3Z" class="g2_1"/>
<path fill-rule="evenodd" d="M834.4,328.9h70.3v15.5H834.4V328.9Z" class="g2_1"/>
<path fill-rule="evenodd" d="M41.2,327.3H335.4v16.8H41.2V327.3Z" class="g2_1"/>
<path fill-rule="evenodd" d="M740.4,327.3h87.9v15.6H740.4V327.3Z" class="g2_1"/>
<path fill-rule="evenodd" d="M549,327.3h86.3v16.8H549V327.3Z" class="g2_1"/>
<path fill-rule="evenodd" d="M445.3,327.3h95.5v16.8H445.3V327.3Z" class="g2_1"/>
<path fill-rule="evenodd" d="M344.1,356.2h95.5v15.6H344.1V356.2Z" class="g2_1"/>
<path fill-rule="evenodd" d="M644.2,356.2h88.1v15.6H644.2V356.2Z" class="g2_1"/>
<path fill-rule="evenodd" d="M834.4,357.7h70.3v15.6H834.4V357.7Z" class="g2_1"/>
<path fill-rule="evenodd" d="M41.2,356.2H335.4V373H41.2V356.2Z" class="g2_1"/>
<path fill-rule="evenodd" d="M740.4,356.2h87.9v15.6H740.4V356.2Z" class="g2_1"/>
<path fill-rule="evenodd" d="M549,356.2h86.3V373H549V356.2Z" class="g2_1"/>
<path fill-rule="evenodd" d="M445.3,356.2h95.5V373H445.3V356.2Z" class="g2_1"/>
<path fill-rule="evenodd" d="M344.1,385.1h95.5v15.6H344.1V385.1Z" class="g2_1"/>
<path fill-rule="evenodd" d="M644.2,385.1h88.1v15.6H644.2V385.1Z" class="g2_1"/>
<path fill-rule="evenodd" d="M834.4,386.6h70.3v15.6H834.4V386.6Z" class="g2_1"/>
<path fill-rule="evenodd" d="M41.2,385.1H335.4v16.8H41.2V385.1Z" class="g2_1"/>
<path fill-rule="evenodd" d="M740.4,385.1h87.9v15.6H740.4V385.1Z" class="g2_1"/>
<path fill-rule="evenodd" d="M549,385.1h86.3v16.8H549V385.1Z" class="g2_1"/>
<path fill-rule="evenodd" d="M445.3,385.1h95.5v16.8H445.3V385.1Z" class="g2_1"/>
<path fill-rule="evenodd" d="M344.1,414h95.5v15.5H344.1V414Z" class="g2_1"/>
<path fill-rule="evenodd" d="M644.2,414h88.1v15.5H644.2V414Z" class="g2_1"/>
<path fill-rule="evenodd" d="M834.4,415.5h70.3v15.6H834.4V415.5Z" class="g2_1"/>
<path fill-rule="evenodd" d="M41.2,414H335.4v16.8H41.2V414Z" class="g2_1"/>
<path fill-rule="evenodd" d="M740.4,414h87.9v15.5H740.4V414Z" class="g2_1"/>
<path fill-rule="evenodd" d="M549,414h86.3v16.8H549V414Z" class="g2_1"/>
<path fill-rule="evenodd" d="M445.3,414h95.5v16.8H445.3V414Z" class="g2_1"/>
<path fill-rule="evenodd" d="M344.1,442.8h95.5v15.6H344.1V442.8Z" class="g2_1"/>
<path fill-rule="evenodd" d="M644.2,442.8h88.1v15.6H644.2V442.8Z" class="g2_1"/>
<path fill-rule="evenodd" d="M834.4,444.4h70.3v15.5H834.4V444.4Z" class="g2_1"/>
<path fill-rule="evenodd" d="M41.2,442.8H335.4v16.8H41.2V442.8Z" class="g2_1"/>
<path fill-rule="evenodd" d="M740.4,442.8h87.9v15.6H740.4V442.8Z" class="g2_1"/>
<path fill-rule="evenodd" d="M549,442.8h86.3v16.8H549V442.8Z" class="g2_1"/>
<path fill-rule="evenodd" d="M445.3,442.8h95.5v16.8H445.3V442.8Z" class="g2_1"/>
<path fill-rule="evenodd" d="M344.1,471.7h95.5v15.6H344.1V471.7Z" class="g2_1"/>
<path fill-rule="evenodd" d="M644.2,471.7h88.1v15.6H644.2V471.7Z" class="g2_1"/>
<path fill-rule="evenodd" d="M834.4,473.2h70.3v15.6H834.4V473.2Z" class="g2_1"/>
<path fill-rule="evenodd" d="M41.2,471.7H335.4v16.8H41.2V471.7Z" class="g2_1"/>
<path fill-rule="evenodd" d="M740.4,471.7h87.9v15.6H740.4V471.7Z" class="g2_1"/>
<path fill-rule="evenodd" d="M549,471.7h86.3v16.8H549V471.7Z" class="g2_1"/>
<path fill-rule="evenodd" d="M445.3,471.7h95.5v16.8H445.3V471.7Z" class="g2_1"/>
<path fill-rule="evenodd" d="M344.1,500.6h95.5v15.6H344.1V500.6Z" class="g2_1"/>
<path fill-rule="evenodd" d="M644.2,500.6h88.1v15.6H644.2V500.6Z" class="g2_1"/>
<path fill-rule="evenodd" d="M834.4,502.1h70.3v15.6H834.4V502.1Z" class="g2_1"/>
<path fill-rule="evenodd" d="M41.2,500.6H335.4v16.8H41.2V500.6Z" class="g2_1"/>
<path fill-rule="evenodd" d="M740.4,500.6h87.9v15.6H740.4V500.6Z" class="g2_1"/>
<path fill-rule="evenodd" d="M549,500.6h86.3v16.8H549V500.6Z" class="g2_1"/>
<path fill-rule="evenodd" d="M445.3,500.6h95.5v16.8H445.3V500.6Z" class="g2_1"/>
<path fill-rule="evenodd" d="M344.1,529.5h95.5V545H344.1V529.5Z" class="g2_1"/>
<path fill-rule="evenodd" d="M644.2,529.5h88.1V545H644.2V529.5Z" class="g2_1"/>
<path fill-rule="evenodd" d="M834.4,531h70.3v15.6H834.4V531Z" class="g2_1"/>
<path fill-rule="evenodd" d="M41.2,529.5H335.4v16.8H41.2V529.5Z" class="g2_1"/>
<path fill-rule="evenodd" d="M740.4,529.5h87.9V545H740.4V529.5Z" class="g2_1"/>
<path fill-rule="evenodd" d="M549,529.5h86.3v16.8H549V529.5Z" class="g2_1"/>
<path fill-rule="evenodd" d="M445.3,529.5h95.5v16.8H445.3V529.5Z" class="g2_1"/>
<path fill-rule="evenodd" d="M344.1,558.3h95.5v15.6H344.1V558.3Z" class="g2_1"/>
<path fill-rule="evenodd" d="M644.2,558.3h88.1v15.6H644.2V558.3Z" class="g2_1"/>
<path fill-rule="evenodd" d="M834.4,559.9h70.3v15.5H834.4V559.9Z" class="g2_1"/>
<path fill-rule="evenodd" d="M41.2,558.3H335.4v16.8H41.2V558.3Z" class="g2_1"/>
<path fill-rule="evenodd" d="M740.4,558.3h87.9v15.6H740.4V558.3Z" class="g2_1"/>
<path fill-rule="evenodd" d="M549,558.3h86.3v16.8H549V558.3Z" class="g2_1"/>
<path fill-rule="evenodd" d="M445.3,558.3h95.5v16.8H445.3V558.3Z" class="g2_1"/>
<path fill-rule="evenodd" d="M344.1,587.2h95.5v15.6H344.1V587.2Z" class="g2_1"/>
<path fill-rule="evenodd" d="M644.2,587.2h88.1v15.6H644.2V587.2Z" class="g2_1"/>
<path fill-rule="evenodd" d="M834.4,588.7h70.3v15.6H834.4V588.7Z" class="g2_1"/>
<path fill-rule="evenodd" d="M41.2,587.2H335.4V604H41.2V587.2Z" class="g2_1"/>
<path fill-rule="evenodd" d="M740.4,587.2h87.9v15.6H740.4V587.2Z" class="g2_1"/>
<path fill-rule="evenodd" d="M549,587.2h86.3V604H549V587.2Z" class="g2_1"/>
<path fill-rule="evenodd" d="M445.3,587.2h95.5V604H445.3V587.2Z" class="g2_1"/>
<path fill-rule="evenodd" d="M344.1,616.1h95.5v15.6H344.1V616.1Z" class="g2_1"/>
<path fill-rule="evenodd" d="M644.2,616.1h88.1v15.6H644.2V616.1Z" class="g2_1"/>
<path fill-rule="evenodd" d="M834.4,617.6h70.3v15.6H834.4V617.6Z" class="g2_1"/>
<path fill-rule="evenodd" d="M41.2,616.1H335.4v16.8H41.2V616.1Z" class="g2_1"/>
<path fill-rule="evenodd" d="M740.4,616.1h87.9v15.6H740.4V616.1Z" class="g2_1"/>
<path fill-rule="evenodd" d="M549,616.1h86.3v16.8H549V616.1Z" class="g2_1"/>
<path fill-rule="evenodd" d="M445.3,616.1h95.5v16.8H445.3V616.1Z" class="g2_1"/>
<path fill-rule="evenodd" d="M344.1,645h95.5v15.5H344.1V645Z" class="g2_1"/>
<path fill-rule="evenodd" d="M644.2,645h88.1v15.5H644.2V645Z" class="g2_1"/>
<path fill-rule="evenodd" d="M834.4,646.5h70.3v15.6H834.4V646.5Z" class="g2_1"/>
<path fill-rule="evenodd" d="M41.2,645H335.4v16.8H41.2V645Z" class="g2_1"/>
<path fill-rule="evenodd" d="M740.4,645h87.9v15.5H740.4V645Z" class="g2_1"/>
<path fill-rule="evenodd" d="M549,645h86.3v16.8H549V645Z" class="g2_1"/>
<path fill-rule="evenodd" d="M445.3,645h95.5v16.8H445.3V645Z" class="g2_1"/>
<path fill-rule="evenodd" d="M344.1,673.8h95.5v15.6H344.1V673.8Z" class="g2_1"/>
<path fill-rule="evenodd" d="M644.2,673.8h88.1v15.6H644.2V673.8Z" class="g2_1"/>
<path fill-rule="evenodd" d="M834.4,675.4h70.3v15.5H834.4V675.4Z" class="g2_1"/>
<path fill-rule="evenodd" d="M41.2,673.8H335.4v16.8H41.2V673.8Z" class="g2_1"/>
<path fill-rule="evenodd" d="M740.4,673.8h87.9v15.6H740.4V673.8Z" class="g2_1"/>
<path fill-rule="evenodd" d="M549,673.8h86.3v16.8H549V673.8Z" class="g2_1"/>
<path fill-rule="evenodd" d="M445.3,673.8h95.5v16.8H445.3V673.8Z" class="g2_1"/>
<path fill-rule="evenodd" d="M344.1,702.7h95.5v15.6H344.1V702.7Z" class="g2_1"/>
<path fill-rule="evenodd" d="M644.2,702.7h88.1v15.6H644.2V702.7Z" class="g2_1"/>
<path fill-rule="evenodd" d="M834.4,704.2h70.3v15.6H834.4V704.2Z" class="g2_1"/>
<path fill-rule="evenodd" d="M41.2,702.7H335.4v16.8H41.2V702.7Z" class="g2_1"/>
<path fill-rule="evenodd" d="M740.4,702.7h87.9v15.6H740.4V702.7Z" class="g2_1"/>
<path fill-rule="evenodd" d="M549,702.7h86.3v16.8H549V702.7Z" class="g2_1"/>
<path fill-rule="evenodd" d="M445.3,702.7h95.5v16.8H445.3V702.7Z" class="g2_1"/>
<path fill-rule="evenodd" d="M344.1,731.6h95.5v15.6H344.1V731.6Z" class="g2_1"/>
<path fill-rule="evenodd" d="M644.2,731.6h88.1v15.6H644.2V731.6Z" class="g2_1"/>
<path fill-rule="evenodd" d="M834.4,733.1h70.3v15.6H834.4V733.1Z" class="g2_1"/>
<path fill-rule="evenodd" d="M41.2,731.6H335.4v16.8H41.2V731.6Z" class="g2_1"/>
<path fill-rule="evenodd" d="M740.4,731.6h87.9v15.6H740.4V731.6Z" class="g2_1"/>
<path fill-rule="evenodd" d="M549,731.6h86.3v16.8H549V731.6Z" class="g2_1"/>
<path fill-rule="evenodd" d="M445.3,731.6h95.5v16.8H445.3V731.6Z" class="g2_1"/>
<path fill-rule="evenodd" d="M344.1,760.5h95.5V776H344.1V760.5Z" class="g2_1"/>
<path fill-rule="evenodd" d="M644.2,760.5h88.1V776H644.2V760.5Z" class="g2_1"/>
<path fill-rule="evenodd" d="M834.4,762h70.3v15.6H834.4V762Z" class="g2_1"/>
<path fill-rule="evenodd" d="M41.2,760.5H335.4v16.8H41.2V760.5Z" class="g2_1"/>
<path fill-rule="evenodd" d="M740.4,760.5h87.9V776H740.4V760.5Z" class="g2_1"/>
<path fill-rule="evenodd" d="M549,760.5h86.3v16.8H549V760.5Z" class="g2_1"/>
<path fill-rule="evenodd" d="M445.3,760.5h95.5v16.8H445.3V760.5Z" class="g2_1"/>
<path fill-rule="evenodd" d="M344.1,789.3h95.5v15.6H344.1V789.3Z" class="g2_1"/>
<path fill-rule="evenodd" d="M644.2,789.3h88.1v15.6H644.2V789.3Z" class="g2_1"/>
<path fill-rule="evenodd" d="M834.4,790.9h70.3v15.5H834.4V790.9Z" class="g2_1"/>
<path fill-rule="evenodd" d="M41.2,789.3H335.4v16.8H41.2V789.3Z" class="g2_1"/>
<path fill-rule="evenodd" d="M740.4,789.3h87.9v15.6H740.4V789.3Z" class="g2_1"/>
<path fill-rule="evenodd" d="M549,789.3h86.3v16.8H549V789.3Z" class="g2_1"/>
<path fill-rule="evenodd" d="M445.3,789.3h95.5v16.8H445.3V789.3Z" class="g2_1"/>
<path fill-rule="evenodd" d="M344.1,818.2h95.5v15.6H344.1V818.2Z" class="g2_1"/>
<path fill-rule="evenodd" d="M644.2,818.2h88.1v15.6H644.2V818.2Z" class="g2_1"/>
<path fill-rule="evenodd" d="M834.4,819.7h70.3v15.6H834.4V819.7Z" class="g2_1"/>
<path fill-rule="evenodd" d="M41.2,818.2H335.4V835H41.2V818.2Z" class="g2_1"/>
<path fill-rule="evenodd" d="M740.4,818.2h87.9v15.6H740.4V818.2Z" class="g2_1"/>
<path fill-rule="evenodd" d="M549,818.2h86.3V835H549V818.2Z" class="g2_1"/>
<path fill-rule="evenodd" d="M445.3,818.2h95.5V835H445.3V818.2Z" class="g2_1"/>
<path fill-rule="evenodd" d="M344.1,847.1h95.5v15.6H344.1V847.1Z" class="g2_1"/>
<path fill-rule="evenodd" d="M644.2,847.1h88.1v15.6H644.2V847.1Z" class="g2_1"/>
<path fill-rule="evenodd" d="M834.4,848.6h70.3v15.6H834.4V848.6Z" class="g2_1"/>
<path fill-rule="evenodd" d="M41.2,847.1H335.4v16.8H41.2V847.1Z" class="g2_1"/>
<path fill-rule="evenodd" d="M740.4,847.1h87.9v15.6H740.4V847.1Z" class="g2_1"/>
<path fill-rule="evenodd" d="M549,847.1h86.3v16.8H549V847.1Z" class="g2_1"/>
<path fill-rule="evenodd" d="M445.3,847.1h95.5v16.8H445.3V847.1Z" class="g2_1"/>
<path fill-rule="evenodd" d="M344.1,876h95.5v15.5H344.1V876Z" class="g2_1"/>
<path fill-rule="evenodd" d="M644.2,876h88.1v15.5H644.2V876Z" class="g2_1"/>
<path fill-rule="evenodd" d="M834.4,877.5h70.3v15.6H834.4V877.5Z" class="g2_1"/>
<path fill-rule="evenodd" d="M41.2,876H335.4v16.8H41.2V876Z" class="g2_1"/>
<path fill-rule="evenodd" d="M740.4,876h87.9v15.5H740.4V876Z" class="g2_1"/>
<path fill-rule="evenodd" d="M549,876h86.3v16.8H549V876Z" class="g2_1"/>
<path fill-rule="evenodd" d="M445.3,876h95.5v16.8H445.3V876Z" class="g2_1"/>
<path fill-rule="evenodd" d="M344.1,904.8h95.5v15.6H344.1V904.8Z" class="g2_1"/>
<path fill-rule="evenodd" d="M644.2,904.8h88.1v15.6H644.2V904.8Z" class="g2_1"/>
<path fill-rule="evenodd" d="M834.4,906.4h70.3v15.5H834.4V906.4Z" class="g2_1"/>
<path fill-rule="evenodd" d="M41.2,904.8H335.4v16.8H41.2V904.8Z" class="g2_1"/>
<path fill-rule="evenodd" d="M740.4,904.8h87.9v15.6H740.4V904.8Z" class="g2_1"/>
<path fill-rule="evenodd" d="M549,904.8h86.3v16.8H549V904.8Z" class="g2_1"/>
<path fill-rule="evenodd" d="M445.3,904.8h95.5v16.8H445.3V904.8Z" class="g2_1"/>
<path fill-rule="evenodd" d="M344.1,933.7h95.5v15.6H344.1V933.7Z" class="g2_1"/>
<path fill-rule="evenodd" d="M644.2,933.7h88.1v15.6H644.2V933.7Z" class="g2_1"/>
<path fill-rule="evenodd" d="M834.4,935.2h70.3v15.6H834.4V935.2Z" class="g2_1"/>
<path fill-rule="evenodd" d="M41.2,933.7H335.4v16.8H41.2V933.7Z" class="g2_1"/>
<path fill-rule="evenodd" d="M740.4,933.7h87.9v15.6H740.4V933.7Z" class="g2_1"/>
<path fill-rule="evenodd" d="M549,933.7h86.3v16.8H549V933.7Z" class="g2_1"/>
<path fill-rule="evenodd" d="M445.3,933.7h95.5v16.8H445.3V933.7Z" class="g2_1"/>
<path fill-rule="evenodd" d="M344.1,962.6h95.5v15.6H344.1V962.6Z" class="g2_1"/>
<path fill-rule="evenodd" d="M644.2,962.6h88.1v15.6H644.2V962.6Z" class="g2_1"/>
<path fill-rule="evenodd" d="M834.4,964.1h70.3v15.6H834.4V964.1Z" class="g2_1"/>
<path fill-rule="evenodd" d="M41.2,962.6H335.4v16.8H41.2V962.6Z" class="g2_1"/>
<path fill-rule="evenodd" d="M740.4,962.6h87.9v15.6H740.4V962.6Z" class="g2_1"/>
<path fill-rule="evenodd" d="M549,962.6h86.3v16.8H549V962.6Z" class="g2_1"/>
<path fill-rule="evenodd" d="M445.3,962.6h95.5v16.8H445.3V962.6Z" class="g2_1"/>
<path fill-rule="evenodd" d="M344.1,991.5h95.5V1007H344.1V991.5Z" class="g2_1"/>
<path fill-rule="evenodd" d="M644.2,991.5h88.1V1007H644.2V991.5Z" class="g2_1"/>
<path fill-rule="evenodd" d="M834.4,993h70.3v15.6H834.4V993Z" class="g2_1"/>
<path fill-rule="evenodd" d="M41.2,991.5H335.4v16.8H41.2V991.5Z" class="g2_1"/>
<path fill-rule="evenodd" d="M740.4,991.5h87.9V1007H740.4V991.5Z" class="g2_1"/>
<path fill-rule="evenodd" d="M549,991.5h86.3v16.8H549V991.5Z" class="g2_1"/>
<path fill-rule="evenodd" d="M445.3,991.5h95.5v16.8H445.3V991.5Z" class="g2_1"/>
<path fill-rule="evenodd" d="M344.1,1020.3h95.5v15.6H344.1v-15.6Z" class="g2_1"/>
<path fill-rule="evenodd" d="M644.2,1020.3h88.1v15.6H644.2v-15.6Z" class="g2_1"/>
<path fill-rule="evenodd" d="M834.4,1021.9h70.3v15.5H834.4v-15.5Z" class="g2_1"/>
<path fill-rule="evenodd" d="M41.2,1020.3H335.4v16.8H41.2v-16.8Z" class="g2_1"/>
<path fill-rule="evenodd" d="M740.4,1020.3h87.9v15.6H740.4v-15.6Z" class="g2_1"/>
<path fill-rule="evenodd" d="M549,1020.3h86.3v16.8H549v-16.8Z" class="g2_1"/>
<path fill-rule="evenodd" d="M445.3,1020.3h95.5v16.8H445.3v-16.8Z" class="g2_1"/>
<path fill-rule="evenodd" d="M344.1,1049.2h95.5v15.6H344.1v-15.6Z" class="g2_1"/>
<path fill-rule="evenodd" d="M644.2,1049.2h88.1v15.6H644.2v-15.6Z" class="g2_1"/>
<path fill-rule="evenodd" d="M834.4,1050.7h70.3v15.6H834.4v-15.6Z" class="g2_1"/>
<path fill-rule="evenodd" d="M41.2,1049.2H335.4V1066H41.2v-16.8Z" class="g2_1"/>
<path fill-rule="evenodd" d="M740.4,1049.2h87.9v15.6H740.4v-15.6Z" class="g2_1"/>
<path fill-rule="evenodd" d="M549,1049.2h86.3V1066H549v-16.8Z" class="g2_1"/>
<path fill-rule="evenodd" d="M445.3,1049.2h95.5V1066H445.3v-16.8Z" class="g2_1"/>
<path fill-rule="evenodd" d="M344.1,1080.5h95.5V1097H344.1v-16.5Z" class="g2_1"/>
<path fill-rule="evenodd" d="M644.2,1080.5h86.3V1097H644.2v-16.5Z" class="g2_1"/>
<path fill-rule="evenodd" d="M834.4,1080.5h70.3V1097H834.4v-16.5Z" class="g2_1"/>
<path fill-rule="evenodd" d="M740.4,1080.5h87.9V1097H740.4v-16.5Z" class="g2_1"/>
<path fill-rule="evenodd" d="M445.3,1080.5h95.5v17.6H445.3v-17.6Z" class="g2_1"/>
<path fill-rule="evenodd" d="M549,1080.5h86.3v17.6H549v-17.6Z" class="g2_1"/>
<path fill-rule="evenodd" d="M32.3,1500.7H227.4v16.9H32.3v-16.9Z" class="g2_1"/>
<path fill-rule="evenodd" d="M716.6,1500.7H904.7v17.2H716.6v-17.2Z" class="g2_1"/>
</svg>